<svg width="192" height="48" viewBox="0 0 192 48" fill="none" xmlns="http://www.w3.org/2000/svg">
<g filter="url(#filter0_d_3_398)">
<path d="M15.6258 38L4.98125 38L4.98125 9.81641L15.6648 9.81641C20.4891 9.81641 23.7508 12.6289 23.7508 16.8477C23.7508 19.7773 21.6023 22.5117 18.8875 23L18.8875 23.1562C22.7156 23.6445 25.1766 26.3398 25.1766 30.0898C25.1766 35.0508 21.6219 38 15.6258 38ZM8.49687 12.9219L8.49687 21.9648L13.7703 21.9648C17.9305 21.9648 20.1961 20.3047 20.1961 17.2578C20.1961 14.4648 18.282 12.9219 14.8641 12.9219L8.49687 12.9219ZM8.49687 34.8945L15.0984 34.8945C19.3367 34.8945 21.5633 33.1758 21.5633 29.9141C21.5633 26.6523 19.2586 24.9922 14.7664 24.9922L8.49687 24.9922L8.49687 34.8945ZM37.1516 38.3516C31.5266 38.3516 27.7375 34.3086 27.7375 27.8437C27.7375 21.3594 31.5266 17.3359 37.1516 17.3359C42.757 17.3359 46.5461 21.3594 46.5461 27.8437C46.5461 34.3086 42.757 38.3516 37.1516 38.3516ZM37.1516 35.3633C40.7453 35.3633 43.0891 32.6289 43.0891 27.8437C43.0891 23.0586 40.7453 20.3242 37.1516 20.3242C33.5578 20.3242 31.1945 23.0586 31.1945 27.8437C31.1945 32.6289 33.5578 35.3633 37.1516 35.3633ZM58.5016 38.3516C52.8766 38.3516 49.0875 34.3086 49.0875 27.8437C49.0875 21.3594 52.8766 17.3359 58.5016 17.3359C64.107 17.3359 67.8961 21.3594 67.8961 27.8437C67.8961 34.3086 64.107 38.3516 58.5016 38.3516ZM58.5016 35.3633C62.0953 35.3633 64.4391 32.6289 64.4391 27.8437C64.4391 23.0586 62.0953 20.3242 58.5016 20.3242C54.9078 20.3242 52.5445 23.0586 52.5445 27.8437C52.5445 32.6289 54.9078 35.3633 58.5016 35.3633ZM75.0078 26.7109L83.9922 17.6875L88.1133 17.6875L79.3047 26.457L88.3867 38L84.4414 38L76.9023 28.5469L75.0078 30.3437L75.0078 38L71.6094 38L71.6094 9.81641L75.0078 9.81641L75.0078 26.7109ZM90.9477 38L90.9477 17.6875L94.1508 17.6875L94.1508 20.9297L94.2289 20.9297C95.1859 18.7812 97.2562 17.3359 99.9906 17.3359C102.764 17.3359 104.815 18.7422 105.694 21.2031L105.772 21.2031C106.905 18.7812 109.287 17.3359 112.139 17.3359C116.162 17.3359 118.76 19.9531 118.76 23.9766L118.76 38L115.362 38L115.362 24.7578C115.362 21.9844 113.819 20.3437 111.143 20.3437C108.448 20.3437 106.553 22.3359 106.553 25.0898L106.553 38L103.155 38L103.155 24.3867C103.155 21.9453 101.514 20.3437 98.9945 20.3437C96.2992 20.3437 94.3461 22.4531 94.3461 25.2656L94.3461 38L90.9477 38ZM131.341 20.2852C128.157 20.2852 125.93 22.7266 125.716 26.1055L136.751 26.1055C136.673 22.707 134.544 20.2852 131.341 20.2852ZM136.673 32.1797L140.012 32.1797C139.427 35.7344 135.989 38.3516 131.555 38.3516C125.735 38.3516 122.2 34.3086 122.2 27.9219C122.2 21.6133 125.794 17.3359 131.399 17.3359C136.887 17.3359 140.266 21.3203 140.266 27.4727L140.266 28.7617L125.696 28.7617L125.696 28.957C125.696 32.8437 127.981 35.4023 131.634 35.4023C134.212 35.4023 136.106 34.0937 136.673 32.1797ZM146.675 38.1953C145.425 38.1953 144.448 37.2187 144.448 35.9687C144.448 34.7187 145.425 33.7422 146.675 33.7422C147.925 33.7422 148.902 34.7187 148.902 35.9687C148.902 37.2187 147.925 38.1953 146.675 38.1953Z" fill="white"/>
<path d="M161.582 31.1738L159.921 31.1738C159.677 30.0703 158.818 29.1621 157.324 29.1621C155.566 29.1621 154.375 30.6172 154.375 32.9219C154.375 35.2852 155.586 36.6816 157.343 36.6816C158.73 36.6816 159.638 35.9492 159.931 34.7285L161.601 34.7285C161.337 36.75 159.638 38.1758 157.334 38.1758C154.521 38.1758 152.646 36.1934 152.646 32.9219C152.646 29.7187 154.511 27.668 157.314 27.668C159.853 27.668 161.367 29.3477 161.582 31.1738ZM167.473 38.1758C164.66 38.1758 162.766 36.1543 162.766 32.9219C162.766 29.6797 164.66 27.668 167.473 27.668C170.275 27.668 172.17 29.6797 172.17 32.9219C172.17 36.1543 170.275 38.1758 167.473 38.1758ZM167.473 36.6816C169.27 36.6816 170.441 35.3145 170.441 32.9219C170.441 30.5293 169.27 29.1621 167.473 29.1621C165.676 29.1621 164.494 30.5293 164.494 32.9219C164.494 35.3145 165.676 36.6816 167.473 36.6816ZM173.989 38L173.989 27.8437L175.59 27.8437L175.59 29.4648L175.629 29.4648C176.108 28.3906 177.143 27.668 178.51 27.668C179.897 27.668 180.922 28.3711 181.362 29.6016L181.401 29.6016C181.967 28.3906 183.159 27.668 184.584 27.668C186.596 27.668 187.895 28.9766 187.895 30.9883L187.895 38L186.196 38L186.196 31.3789C186.196 29.9922 185.424 29.1719 184.086 29.1719C182.739 29.1719 181.791 30.168 181.791 31.5449L181.791 38L180.092 38L180.092 31.1934C180.092 29.9727 179.272 29.1719 178.012 29.1719C176.664 29.1719 175.688 30.2266 175.688 31.6328L175.688 38L173.989 38Z" fill="white"/>
</g>
<defs>
<filter id="filter0_d_3_398" x="0.981262" y="9.81641" width="190.914" height="36.5352" filterUnits="userSpaceOnUse" color-interpolation-filters="sRGB">
<feFlood flood-opacity="0" result="BackgroundImageFix"/>
<feColorMatrix in="SourceAlpha" type="matrix" values="0 0 0 0 0 0 0 0 0 0 0 0 0 0 0 0 0 0 127 0" result="hardAlpha"/>
<feOffset dy="4"/>
<feGaussianBlur stdDeviation="2"/>
<feComposite in2="hardAlpha" operator="out"/>
<feColorMatrix type="matrix" values="0 0 0 0 0 0 0 0 0 0 0 0 0 0 0 0 0 0 0.25 0"/>
<feBlend mode="normal" in2="BackgroundImageFix" result="effect1_dropShadow_3_398"/>
<feBlend mode="normal" in="SourceGraphic" in2="effect1_dropShadow_3_398" result="shape"/>
</filter>
</defs>
</svg>
